<?xml version="1.0" encoding="UTF-8"?>
<svg xmlns="http://www.w3.org/2000/svg" xmlns:xlink="http://www.w3.org/1999/xlink" width="267px" height="400px" viewBox="0 0 267 400" version="1.1">
<g id="surface1">
<path style=" stroke:none;fill-rule:evenodd;fill:rgb(40.000001%,88.627452%,86.274511%);fill-opacity:1;" d="M 66.75 0 C 103.613281 0 133.5 29.847656 133.5 66.667969 L 133.5 266.667969 L 85.578125 266.667969 C 38.316406 266.667969 0 228.398438 0 181.195312 L 0 66.667969 C 0 29.847656 29.886719 0 66.75 0 Z M 66.75 0 "/>
<path style=" stroke:none;fill-rule:evenodd;fill:rgb(9.803922%,9.411765%,14.901961%);fill-opacity:1;" d="M 133.5 266.667969 L 200.25 266.667969 C 237.113281 266.667969 267 296.515625 267 333.332031 C 267 370.152344 237.113281 400 200.25 400 C 163.386719 400 133.5 370.152344 133.5 333.332031 Z M 133.5 266.667969 "/>
<path style=" stroke:none;fill-rule:evenodd;fill:rgb(100%,72.549021%,39.215687%);fill-opacity:1;" d="M 233.625 66.667969 C 252.058594 66.667969 267 81.589844 267 100 C 267 118.410156 252.058594 133.332031 233.625 133.332031 C 215.191406 133.332031 200.25 118.410156 200.25 100 C 200.25 81.589844 215.191406 66.667969 233.625 66.667969 Z M 233.625 66.667969 "/>
<path style=" stroke:none;fill-rule:evenodd;fill:rgb(98.039216%,45.490196%,32.549021%);fill-opacity:1;" d="M 233.625 0 C 252.058594 0 267 14.925781 267 33.332031 C 267 51.742188 252.058594 66.667969 233.625 66.667969 C 215.191406 66.667969 200.25 51.742188 200.25 33.332031 C 200.25 14.925781 215.191406 0 233.625 0 Z M 233.625 0 "/>
<path style=" stroke:none;fill-rule:evenodd;fill:rgb(98.039216%,45.490196%,32.549021%);fill-opacity:1;" d="M 66.75 266.667969 C 103.613281 266.667969 133.5 296.515625 133.5 333.332031 C 133.5 370.152344 103.613281 400 66.75 400 C 29.886719 400 0 370.152344 0 333.332031 C 0 296.515625 29.886719 266.667969 66.75 266.667969 Z M 66.75 266.667969 "/>
<path style=" stroke:none;fill-rule:evenodd;fill:rgb(9.803922%,9.411765%,14.901961%);fill-opacity:1;" d="M 166.875 0 C 185.308594 0 200.25 14.925781 200.25 33.332031 L 200.25 100 C 200.25 118.410156 185.308594 133.332031 166.875 133.332031 C 148.441406 133.332031 133.5 118.410156 133.5 100 L 133.5 33.332031 C 133.5 14.925781 148.441406 0 166.875 0 Z M 166.875 0 "/>
<path style="fill:none;stroke-width:2;stroke-linecap:butt;stroke-linejoin:miter;stroke:rgb(9.803922%,9.411765%,14.901961%);stroke-opacity:1;stroke-miterlimit:4;" d="M 234 156.999375 C 276.523876 156.999375 311.000351 191.473242 311.000351 234 C 311.000351 276.526758 276.523876 311.000625 234 311.000625 C 191.476124 311.000625 156.999649 276.526758 156.999649 234 C 156.999649 191.473242 191.476124 156.999375 234 156.999375 Z M 234 156.999375 " transform="matrix(0.855769,0,0,0.854701,0,0)"/>
<path style="fill:none;stroke-width:2;stroke-linecap:butt;stroke-linejoin:miter;stroke:rgb(9.803922%,9.411765%,14.901961%);stroke-opacity:1;stroke-miterlimit:4;" d="M 195 195.997852 C 215.988062 195.997852 233.000351 213.013125 233.000351 234 C 233.000351 254.986875 215.988062 272.002148 195 272.002148 C 174.011938 272.002148 156.999649 254.986875 156.999649 234 C 156.999649 213.013125 174.011938 195.997852 195 195.997852 Z M 195 195.997852 " transform="matrix(0.855769,0,0,0.854701,0,0)"/>
</g>
</svg>
